<?xml version="1.0" encoding="utf-8"?>
<!-- Generator: Adobe Illustrator 16.0.0, SVG Export Plug-In . SVG Version: 6.00 Build 0)  -->
<!DOCTYPE svg PUBLIC "-//W3C//DTD SVG 1.1//EN" "http://www.w3.org/Graphics/SVG/1.1/DTD/svg11.dtd">
<svg version="1.1" id="Слой_1" xmlns="http://www.w3.org/2000/svg" xmlns:xlink="http://www.w3.org/1999/xlink" x="0px" y="0px"
	 width="500px" height="150px" viewBox="0 0 500 150" enable-background="new 0 0 500 150" xml:space="preserve">
<g>
	<path fill="#FFFFFF" d="M263.066,116.914c16.587-0.348,48.139,0,94.653,0.928c-4.06,0.813-8.352,2.552-12.76,5.104
		c-3.016,1.74-5.104,4.292-6.147,7.424c-0.58,1.509-0.813,2.9-0.813,4.177c-7.308-0.929-15.892-1.856-25.635-2.784
		c-19.604-1.856-35.38-2.668-47.56-2.552c-3.132,0.115-7.655,0.115-13.571,0c-6.612-0.116-11.6-0.116-14.964-0.116
		c-12.875,0-25.635,0.58-38.279,1.74c-1.508,0.115-3.944,0.464-7.308,0.928c-5.104,0.58-8.12,1.044-9.164,1.16
		c-8.352,1.044-15.544,1.624-21.576,1.739c-18.443,0.232-31.203-3.712-38.047-11.716l-8.468-10.207
		c-19.14,4.292-41.063,3.828-65.887-1.393c-8.004-1.624-14.616-4.987-19.835-9.976c-2.436-2.319-4.06-4.64-4.756-7.075
		c-0.812-2.553-0.464-4.872,0.928-6.845c2.204-3.479,6.496-6.38,12.76-8.583c1.16-1.276,4.64-2.553,10.44-3.828
		c8.932-1.972,17.863-1.74,26.795,0.696c3.944-10.788,9.164-26.563,15.775-47.095c-18.211,0.696-38.743,6.147-61.827,16.239
		c-8.236,3.712-14.731,9.28-19.255,16.704c-2.204,3.828-3.712,7.192-4.292,10.092c-2.668-11.02-0.928-19.719,5.22-25.867
		c3.828-3.828,12.063-8.468,24.939-13.92c14.848-6.264,33.987-9.744,57.419-10.324c0.116-0.116,0.116-0.116,0.116-0.116
		c5.22-0.812,9.396-0.812,12.76,0c0.116,0,0.116,0,0.116,0.116c9.28,0.348,16.936,1.16,22.967,2.668
		c6.38,1.624,11.6,3.712,15.428,6.148c3.828,2.436,6.148,5.22,6.96,8.352c0.812,3.132,0,6.496-2.436,9.859
		c-2.552,3.596-6.728,7.076-12.644,10.556c-2.204,1.276-7.54,1.624-16.008,0.928c-4.292-0.348-8.352-0.928-12.18-1.508
		c5.336-1.276,10.672-2.9,15.892-4.872c10.556-4.06,15.776-8.236,15.776-12.296c0-3.944-3.596-7.076-10.788-9.279
		c-6.264-1.972-14.731-3.132-25.287-3.48c-3.828,10.788-10.324,27.607-19.488,50.458c3.016,1.509,6.148,3.479,9.512,6.147
		l4.176-3.131c11.948-8.236,22.156-14.036,30.74-17.4c16.124-6.38,28.071-5.568,35.843,2.204c2.552,2.436,3.248,5.568,2.204,9.164
		c-0.812,3.247-3.016,6.844-6.496,10.671c-6.496,7.076-14.964,13.341-25.288,18.792c-4.872,2.437-10.208,4.524-15.892,6.032
		c4.524,5.22,8.004,8.584,10.44,9.976c7.656,4.524,19.023,5.916,33.987,4.176c4.292-0.464,10.44-1.508,18.444-3.016
		c7.771-1.508,13.224-2.437,16.472-2.784C211.331,118.422,233.255,117.378,263.066,116.914z M33.159,88.61
		c-0.812,3.828,1.16,6.96,5.8,9.628c4.176,2.32,10.324,4.06,18.328,5.104c15.428,2.088,31.319,1.856,47.791-0.812
		c-6.612-7.888-11.02-12.644-13.456-14.151c-7.772,6.728-11.716,10.092-11.716,10.092c-2.668,1.044-4.06,1.392-4.292,1.275
		c-3.364-1.855-5.452-3.016-6.148-3.596c-1.972-1.508-2.436-3.248-1.624-4.988c1.16-2.319,2.668-6.147,4.64-11.367
		c-9.048-2.204-17.864-2.204-26.447,0.115c-4.292,1.276-7.772,2.668-10.324,4.293C34.319,85.711,33.507,87.103,33.159,88.61z
		 M81.53,82.927l-4.756,11.716c3.596-0.58,8.004-3.016,13.224-7.308C87.098,85.595,84.314,84.203,81.53,82.927z M109.253,101.719
		c3.016-0.58,5.684-1.16,7.888-1.973c11.483-3.712,20.647-9.512,27.259-17.399c2.784-3.364,4.408-6.496,4.872-9.28
		c0.464-2.9-0.464-4.872-2.784-6.148c-4.872-2.552-12.644-1.74-23.315,2.32c-9.628,3.596-18.328,8.352-26.1,14.499
		c-0.696,0.58-1.74,1.393-3.132,2.668C98.234,90.003,103.338,95.106,109.253,101.719z"/>
	<path fill="#FFFFFF" d="M202.635,91.047l2.9-2.088l3.828-3.133c3.48-2.899,6.612-6.379,9.28-10.439
		c-0.348,3.132-1.044,5.684-2.088,7.54c-1.624,2.668-4.64,6.38-9.048,10.903c-4.988,5.221-7.424,7.772-7.308,7.772
		c-2.9,1.044-4.408,1.624-4.64,1.508c-4.524-2.552-7.308-4.292-8.12-5.336c-1.972,2.204-3.364,3.712-4.292,4.292
		c-1.74,1.275-3.596,1.74-5.336,1.392c-3.248-0.695-7.076-3.479-11.484-8.352c-1.044-1.276-1.276-4.872-0.464-10.788
		c0.812-5.684,2.204-11.251,4.176-16.819c1.392-4.06,3.48-8.004,6.264-12.063c2.784-4.06,5.568-7.076,8.468-9.048
		c1.74-1.16,6.032-1.276,12.992-0.348c2.436,0.348,4.06,2.088,4.872,5.22c0.928-2.668,1.856-5.452,2.668-8.12
		c3.596,3.48,6.844,6.148,9.512,8.004c0.696,0.464,1.044,1.508,1.044,3.248c-2.9,7.656-5.684,14.383-8.352,20.183l-7.656,17.167
		C201.126,91.742,202.055,91.511,202.635,91.047z M187.903,91.511c3.48-7.656,7.656-18.792,12.528-33.523
		c-0.348-3.596-0.928-6.264-1.856-8.236c-1.392-0.928-2.436-1.044-3.248-0.232c-3.132,3.016-5.684,6.264-7.888,9.86
		c-3.828,6.148-7.308,14.383-10.44,24.824c-0.928,2.899-1.508,5.684-1.624,8.583c-0.232,3.48,0.348,5.916,1.624,7.309
		c0.812,1.044,2.204,0.695,4.176-1.16C181.871,98.354,184.075,95.803,187.903,91.511z"/>
	<path fill="#FFFFFF" d="M219.222,103.342c-7.772-6.264-11.484-9.859-11.251-10.671c0.812-3.017,3.828-9.048,8.932-18.096
		c3.828-2.668,8.236-4.756,13.107-6.032c9.744-2.668,16.24-6.96,19.372-12.76l-5.684,0.928c-4.872,0.812-8.12,1.044-9.628,0.812
		c-1.74-0.116-3.364-1.16-5.104-2.9c-1.044-1.044-1.276-2.9-0.928-5.452c0.232-1.276,0.58-2.552,1.044-3.596
		c2.668,0.58,7.076,0.812,13.224,0.696c11.483-0.348,19.951-1.044,25.403-2.088c-1.74,3.364-3.828,5.916-6.496,7.888
		c0.813,0.928,1.044,1.74,0.464,2.552c-3.363,5.22-7.308,9.396-11.715,12.759c-5.22,3.828-12.063,7.192-20.531,10.324
		c-0.812,0.348-2.088,1.623-3.596,3.828c-2.088,3.131-3.364,6.611-3.944,10.671c-0.116,0.232,0.232,0.349,1.044,0.349l3.596-0.58
		c5.684-0.813,10.788-1.508,15.427-1.856l7.076-0.464c2.204-0.116,3.132,0.116,2.9,0.464c-4.524,6.148-7.424,10.672-8.584,13.456
		C238.362,102.183,230.358,102.066,219.222,103.342z"/>
	<path fill="#FFFFFF" d="M296.94,94.41c0.58,0,2.784-1.739,6.612-5.104c4.523-3.943,8.932-8.352,13.339-13.34
		c-0.115,3.48-0.812,6.031-2.204,7.54c-2.899,3.247-6.379,6.96-10.439,11.252l-2.784,3.132l-2.436,2.783
		c-1.74,1.973-3.364,2.9-4.64,2.9c-0.696,0-2.784-0.928-6.264-2.784c-2.668-1.392-4.061-2.668-4.292-3.828
		c-0.349-1.508,1.624-8.119,5.8-20.067l4.06-11.6c1.16-3.364,1.508-4.872,1.044-4.756c-2.552,1.276-7.424,3.944-14.731,8.004
		c-2.32,5.916-6.96,17.283-14.036,34.22c-1.855-0.58-3.596-1.393-5.22-2.437c-3.363-2.204-4.407-4.523-3.132-7.191
		c1.856-3.828,11.483-31.667,28.768-83.519c0.116-0.116,2.204,1.392,6.496,4.408c4.292,2.9,6.147,4.872,5.8,5.916
		c-4.756,13.108-9.744,25.983-14.732,38.743c12.064-9.164,18.444-13.572,19.024-13.107l2.783,2.204
		c1.16,0.812,1.973,1.392,2.437,1.972c1.508,1.508,1.972,3.248,1.508,5.336C307.844,62.047,303.553,75.155,296.94,94.41z"/>
	<path fill="#FFFFFF" d="M325.245,68.659c-1.973,4.524-3.828,9.628-5.568,15.544c-0.928,2.899-1.508,5.684-1.624,8.583
		c-0.231,3.48,0.349,5.916,1.624,7.309c0.348,0.348,0.58,0.579,0.696,0.579c1.16-0.231,2.668-1.623,4.64-4.291
		c2.204-2.784,4.176-6.032,5.916-9.744c-2.668,0-4.176,0-4.64-0.116c-1.16-0.116-1.508-1.276-1.044-3.364
		c0.115-0.695,1.624-2.203,4.523-4.407c1.972-1.509,3.48-2.32,4.408-2.668c0.348-0.116,0.58-0.116,0.695,0
		c0.813,0.696,1.509,1.508,2.204,2.436c1.276,1.856,1.74,3.364,1.276,4.64c-0.116,0-0.116,0-0.116,0
		c3.248-0.348,6.148-0.58,8.584-0.695c-1.276,1.74-2.32,3.363-3.132,4.64c-1.972-0.464-4.292-0.58-6.728-0.464
		c-1.393,3.132-3.48,6.611-6.148,10.323c-3.132,4.408-6.496,6.612-10.092,6.612c-0.116,0-0.812-0.232-1.855-0.812
		c-3.48-1.624-6.729-4.177-9.86-7.656c-1.044-1.276-1.275-4.872-0.464-10.788c0.813-5.684,2.204-11.367,4.176-16.819
		c1.393-4.06,3.48-8.12,6.264-12.18c2.784-4.06,5.568-6.96,8.468-8.932c1.044-0.696,2.668-1.044,4.872-1.044
		c0.58,0,1.624,0,2.9,0.116c1.275,0.116,2.319,0.116,3.016,0.116c0.928,0,2.784,1.044,5.684,3.016
		c3.017,2.32,4.641,4.408,4.756,6.264c0.232,2.9-1.159,6.496-4.06,10.556c-1.855,2.668-4.176,4.524-7.076,5.684
		c-0.348,0.232-1.275,0.464-3.016,0.812l-4.64,1.044c-0.58,0.116-1.16-0.232-1.972-1.044
		C327.448,71.443,326.521,70.399,325.245,68.659z M338.005,49.52c-4.177,4.06-7.772,8.932-10.672,14.848
		c-0.116-0.348,0.348,1.16,1.624,4.408c0.58,1.276,1.044,1.972,1.508,1.972c1.044,0.116,2.784-1.276,4.987-3.944
		c0.696-0.812,1.393-1.74,2.088-2.784c0.696-0.812,1.044-1.276,0.929-1.276c2.088-3.016,3.132-6.148,3.132-9.512
		c0-0.812-0.464-1.74-1.393-2.784C339.28,49.288,338.584,48.939,338.005,49.52z M328.261,84.203c0.348,0,0.928,0,1.972-0.116
		s1.74-0.232,1.973-0.232c0.928-2.204,1.739-4.292,2.319-6.38c-0.116,0-1.74,1.276-4.872,3.712c-1.16,0.929-1.855,1.74-2.088,2.32
		C327.448,84.087,327.681,84.318,328.261,84.203z"/>
	<path fill="#FFFFFF" d="M383.708,94.41c0.695,0,2.899-1.739,6.611-5.104c4.524-3.943,9.048-8.352,13.34-13.34
		c-0.116,3.48-0.813,6.031-2.204,7.54c-2.899,3.247-6.38,6.96-10.439,11.252l-2.668,3.132l-2.552,2.783
		c-1.74,1.973-3.364,2.9-4.641,2.9c-0.695,0-2.783-0.928-6.264-2.784c-2.668-1.392-4.06-2.668-4.292-3.828
		c-0.348-1.508,1.624-8.119,5.916-20.067c2.204-6.264,3.596-10.091,3.944-11.6c1.159-3.364,1.508-4.872,1.044-4.64
		c-2.553,1.16-7.309,3.712-14.152,7.656c-1.855,5.452-4.523,12.644-8.004,21.692c-3.016,8.003-4.64,12.527-4.987,13.571
		c-2.204-0.928-4.176-2.088-6.148-3.479c-3.827-2.668-5.22-5.336-4.176-7.772c2.668-5.8,6.265-15.428,10.788-28.883
		c4.06-11.948,6.032-17.863,6.032-17.979c0.812,0.58,1.972,1.392,3.479,2.204l3.712,2.088c2.668,1.74,3.828,3.596,3.364,5.452
		l-1.16,3.828c12.412-9.396,18.907-13.92,19.487-13.456c0.464,0.464,1.393,1.16,2.784,2.204c1.16,0.812,1.972,1.392,2.436,1.972
		c1.508,1.508,2.088,3.364,1.508,5.336C394.611,62.163,390.319,75.271,383.708,94.41z"/>
	<path fill="#FFFFFF" d="M433.587,70.167c4.061-0.812,7.54-1.392,10.324-1.74l-2.32,4.408c-2.899-0.232-5.915-0.116-8.932,0.232
		c-0.348,0.812-0.58,1.624-0.812,2.436c-1.973,5.916-4.641,11.483-7.888,16.588c-1.973,3.248-3.828,5.684-5.568,7.308
		c-2.784,2.436-5.104,3.712-6.844,4.06l-1.392,0.116c-3.364-0.116-7.192-1.392-11.252-3.828c-1.74-1.275-2.552-2.088-2.668-2.552
		l-0.116-0.812c-1.972-14.036,1.972-27.608,11.6-40.715c6.032-8.12,12.296-11.484,18.792-10.208c0.348,0.116,0.695,0.232,0.812,0.58
		l-0.812,2.088c3.132-0.928,5.567-0.348,7.191,1.624c1.16,1.508,1.973,3.944,2.437,7.308v2.32
		C436.14,61.119,435.327,64.715,433.587,70.167z M415.84,89.887c4.06-5.452,7.076-10.672,9.048-15.428
		c-1.972,0.348-3.48,0.58-4.408,0.58c-1.275,0-2.204-0.348-3.016-1.044c-0.464-0.58-0.928-1.392-1.508-2.552
		c-0.464-1.16-0.58-1.972-0.464-2.32c1.739-4.06,3.943-8.584,6.728-13.804c-3.248,1.508-7.54,8.236-12.992,20.184
		c-1.855,3.944-3.247,8.7-4.06,14.268c-1.044,6.147-0.58,9.396,1.392,9.628C408.3,99.515,411.315,96.383,415.84,89.887z
		 M425.932,71.907c2.32-5.916,3.248-10.091,2.899-12.759c-0.115-0.928-0.464-1.624-0.928-1.972l-0.464-0.464
		c-0.116-0.116-0.232-0.116-0.232-0.232c-0.231,0.116-1.392,1.74-3.479,4.64c-2.436,3.364-4.06,6.148-4.988,8.12
		c-0.115,0.348,0.116,0.812,0.465,1.508c0.348,0.812,0.695,1.276,1.044,1.392C421.06,72.487,422.916,72.487,425.932,71.907z"/>
	<path fill="#FFFFFF" d="M487.525,50.1c0,0.116,3.017,0.116,9.048,0l-2.436,3.712c-2.784-0.58-5.336-0.928-7.771-0.812
		c-3.712,8.932-8.353,17.167-13.92,24.823c-3.944,5.568-9.628,11.252-16.936,17.052c-5.452,4.292-8.815,6.612-10.324,7.192
		c-2.899,1.044-4.407,1.624-4.64,1.508c-3.828-2.088-6.032-3.479-6.844-4.06c-2.204-1.74-2.784-3.597-1.855-5.568
		c4.523-9.28,10.439-25.403,17.747-48.255c4.06,2.088,7.54,4.06,10.208,5.916c0.58,0.464,0.928,1.508,0.928,3.248
		c-2.9,7.656-5.567,14.384-8.235,20.184l-7.656,17.167c1.276,0,2.204-0.231,2.784-0.695c8.119-6.612,15.428-13.92,22.039-22.04
		c5.8-7.076,9.396-12.528,10.672-16.356c-2.552-0.116-4.176-0.116-4.756-0.232c-1.16-0.116-1.508-1.276-0.928-3.364
		c0.116-0.696,1.74-2.088,4.64-4.292c1.972-1.508,3.479-2.552,4.292-2.9c0.348-0.116,0.696-0.116,1.16,0
		c0.812,0.116,1.508,0.696,2.204,1.74C488.105,45.576,488.338,47.664,487.525,50.1z M477.666,50.563c0.348,0,0.928,0,1.972-0.116
		c1.16-0.116,1.856-0.232,1.973-0.232c0.928-2.088,1.624-4.176,2.204-6.264c0,0-1.624,1.276-4.757,3.712
		c-1.159,0.812-1.855,1.624-2.088,2.204C476.854,50.447,477.086,50.68,477.666,50.563z"/>
</g>
</svg>
