<?xml version="1.0" standalone="no"?>
<!DOCTYPE svg PUBLIC "-//W3C//DTD SVG 20010904//EN"
 "http://www.w3.org/TR/2001/REC-SVG-20010904/DTD/svg10.dtd">
<svg version="1.0" xmlns="http://www.w3.org/2000/svg"
 width="512.000000pt" height="512.000000pt" viewBox="0 0 512.000000 512.000000"
 preserveAspectRatio="xMidYMid meet">
<metadata>
Created by potrace 1.13, written by Peter Selinger 2001-2015
</metadata>
<g transform="translate(0.000000,512.000000) scale(0.100000,-0.100000)"
fill="#FFFFFF" stroke="none">
<path d="M2323 5110 c-604 -59 -1154 -320 -1580 -751 -396 -401 -631 -874
-720 -1449 -27 -177 -24 -539 5 -725 45 -284 117 -512 243 -764 248 -502 648
-901 1150 -1150 716 -356 1543 -360 2256 -12 264 129 451 261 662 466 228 222
372 419 510 696 359 720 361 1545 7 2264 -136 274 -268 460 -479 674 -399 403
-883 648 -1457 736 -124 19 -466 27 -597 15z m475 -311 c516 -56 984 -280
1352 -649 429 -429 660 -984 660 -1590 0 -605 -231 -1162 -660 -1590 -428
-429 -985 -660 -1590 -660 -606 0 -1161 231 -1590 660 -429 429 -660 984 -660
1590 0 606 230 1161 660 1590 363 364 832 592 1335 648 114 13 379 14 493 1z"/>
<path d="M1616 3492 c-38 -120 -57 -234 -63 -381 -6 -134 -6 -135 -40 -179
-51 -68 -79 -120 -110 -207 -27 -78 -28 -86 -27 -275 0 -178 3 -203 27 -294
92 -343 310 -539 682 -613 77 -15 145 -18 480 -18 336 0 404 3 490 19 184 34
300 86 431 194 120 98 202 236 252 421 23 87 26 114 26 291 1 189 0 197 -27
275 -29 80 -78 171 -123 224 -22 26 -24 39 -28 162 -4 137 -29 285 -64 389
l-19 55 -46 -2 c-89 -5 -318 -104 -480 -209 l-72 -47 -85 13 c-110 17 -379 17
-496 0 l-91 -12 -59 39 c-141 96 -314 180 -423 207 -122 30 -107 36 -135 -52z"/>
</g>
</svg>
