<?xml version="1.0" standalone="no"?>
<!DOCTYPE svg PUBLIC "-//W3C//DTD SVG 20010904//EN"
 "http://www.w3.org/TR/2001/REC-SVG-20010904/DTD/svg10.dtd">
<svg version="1.0" xmlns="http://www.w3.org/2000/svg"
 width="512.000000pt" height="512.000000pt" viewBox="0 0 512.000000 512.000000"
 preserveAspectRatio="xMidYMid meet">
<metadata>
Created by potrace 1.13, written by Peter Selinger 2001-2015
</metadata>
<g transform="translate(0.000000,512.000000) scale(0.100000,-0.100000)"
fill="#FFFFFF" stroke="none">
<path d="M2323 5110 c-604 -59 -1154 -320 -1580 -751 -396 -401 -631 -874
-720 -1449 -27 -177 -24 -539 5 -725 45 -284 117 -512 243 -764 248 -502 648
-901 1150 -1150 716 -356 1543 -360 2256 -12 264 129 451 261 662 466 228 222
372 419 510 696 359 720 361 1545 7 2264 -136 274 -268 460 -479 674 -399 403
-883 648 -1457 736 -124 19 -466 27 -597 15z m475 -311 c516 -56 984 -280
1352 -649 429 -429 660 -984 660 -1590 0 -605 -231 -1162 -660 -1590 -428
-429 -985 -660 -1590 -660 -606 0 -1161 231 -1590 660 -429 429 -660 984 -660
1590 0 606 230 1161 660 1590 363 364 832 592 1335 648 114 13 379 14 493 1z"/>
<path d="M1620 3731 c-76 -24 -147 -89 -171 -157 -21 -58 -21 -1970 0 -2028
17 -49 73 -111 125 -139 l41 -22 945 0 945 0 41 22 c48 25 100 81 123 132 14
32 16 133 16 1021 0 888 -2 989 -16 1021 -23 51 -75 107 -123 132 l-41 22
-930 2 c-511 1 -941 -2 -955 -6z m1770 -196 c16 -8 34 -24 40 -34 5 -11 10
-84 10 -165 0 -139 -1 -146 -24 -173 l-24 -28 -147 0 -147 0 -24 28 c-23 27
-24 34 -24 175 0 207 3 210 193 211 87 1 126 -3 147 -14z m-732 -510 c87 -21
136 -48 205 -114 102 -97 148 -201 150 -341 1 -149 -48 -266 -153 -363 -184
-171 -445 -163 -618 17 -110 114 -154 250 -132 406 32 229 224 402 450 409 19
0 63 -6 98 -14z m-772 -262 c-18 -61 -28 -169 -23 -252 22 -382 328 -681 697
-681 308 0 583 213 670 520 35 125 37 302 4 413 -5 15 4 17 100 17 l106 0 0
-536 c0 -549 -1 -562 -39 -591 -12 -10 -208 -12 -842 -13 l-826 0 -27 26 -26
27 0 543 0 544 106 0 c96 0 105 -2 100 -17z"/>
</g>
</svg>
