<?xml version="1.0" standalone="no"?>
<!DOCTYPE svg PUBLIC "-//W3C//DTD SVG 20010904//EN"
 "http://www.w3.org/TR/2001/REC-SVG-20010904/DTD/svg10.dtd">
<svg version="1.0" xmlns="http://www.w3.org/2000/svg"
 width="512.000000pt" height="512.000000pt" viewBox="0 0 512.000000 512.000000"
 preserveAspectRatio="xMidYMid meet">
<metadata>
Created by potrace 1.13, written by Peter Selinger 2001-2015
</metadata>
<g transform="translate(0.000000,512.000000) scale(0.100000,-0.100000)"
fill="#FFFFFF" stroke="none">
<path d="M2323 5110 c-604 -59 -1154 -320 -1580 -751 -396 -401 -631 -874
-720 -1449 -27 -177 -24 -539 5 -725 45 -284 117 -512 243 -764 248 -502 648
-901 1150 -1150 716 -356 1543 -360 2256 -12 264 129 451 261 662 466 228 222
372 419 510 696 359 720 361 1545 7 2264 -136 274 -268 460 -479 674 -399 403
-883 648 -1457 736 -124 19 -466 27 -597 15z m475 -311 c516 -56 984 -280
1352 -649 429 -429 660 -984 660 -1590 0 -605 -231 -1162 -660 -1590 -428
-429 -985 -660 -1590 -660 -606 0 -1161 231 -1590 660 -429 429 -660 984 -660
1590 0 606 230 1161 660 1590 363 364 832 592 1335 648 114 13 379 14 493 1z"/>
<path d="M2303 3405 c-74 -20 -160 -66 -215 -115 -58 -50 -61 -65 -13 -56 48
9 112 -10 131 -39 14 -22 16 -54 11 -242 -5 -226 -18 -316 -54 -355 -52 -58
-116 12 -334 368 -186 304 -215 343 -268 359 -13 4 -114 4 -224 0 -176 -7
-202 -10 -218 -26 -11 -11 -19 -30 -19 -43 0 -32 113 -304 201 -482 203 -413
564 -821 844 -955 124 -60 188 -73 354 -73 143 -1 144 -1 163 25 14 18 22 51
27 111 9 100 35 154 92 194 107 74 186 34 456 -228 l111 -108 209 0 c181 0
213 3 249 19 48 22 80 59 95 111 17 56 4 99 -52 180 -53 74 -239 267 -343 354
-55 47 -58 51 -52 85 6 37 61 121 230 355 153 210 234 362 222 412 -13 48
-217 98 -403 99 -118 0 -124 -1 -147 -25 -53 -54 -203 -305 -302 -507 -59
-119 -114 -219 -127 -228 -29 -20 -70 -19 -89 3 -40 44 -48 114 -48 406 0 304
-5 343 -50 388 l-28 28 -179 -1 c-120 0 -195 -5 -230 -14z"/>
</g>
</svg>
